ffmpeg started on 2025-06-05 at 19:59:27
Report written to "D:\Convert\FFMetrics\reports\ssim_report-6.txt"
Log level: 32
Command line:
ffmpeg -hide_banner -nostdin -i "G:\\\xc0\xed\xe8\xec\xe5\\\xce\xed\xe3\xee\xe8\xed\xe3\xe8\\!_36_\xce\xf1\xe5\xed\xfc_2024\\DreamCast\\\xcd\xe0\xef\xe0\xe4\xe5\xed\xe8\xe5 \xee\xe4\xe8\xed\xee\xf7\xea\xe8 \xed\xe0 \xe8\xed\xee\xe9 \xec\xe8\xf0\\[DC] Hitoribocchi no Isekai Kouryaku - 12_Telegram_HEVC.mkv" -i "G:\\\xc0\xed\xe8\xec\xe5\\\xce\xed\xe3\xee\xe8\xed\xe3\xe8\\!_36_\xce\xf1\xe5\xed\xfc_2024\\DreamCast\\\xcd\xe0\xef\xe0\xe4\xe5\xed\xe8\xe5 \xee\xe4\xe8\xed\xee\xf7\xea\xe8 \xed\xe0 \xe8\xed\xee\xe9 \xec\xe8\xf0\\[DC] Hitoribocchi no Isekai Kouryaku - 12_Telegram.mp4" -lavfi "[0:v]settb=AVTB,setpts=PTS-STARTPTS,format=pix_fmts=yuv420p10,fps=24000/1001,scale=1920:1080:flags=bicubic[main];[1:v]settb=AVTB,setpts=PTS-STARTPTS,format=pix_fmts=yuv420p,fps=24000/1001,scale=1920:1080:flags=bicubic[ref];[main][ref]ssim=eof_action=endall:stats_file='D\\:/Convert/FFMetrics/logs/ssim_logfile-6.txt'" -f null -
Input #0, matroska,webm, from 'G:\Аниме\Онгоинги\!_36_Осень_2024\DreamCast\Нападение одиночки на иной мир\[DC] Hitoribocchi no Isekai Kouryaku - 12_Telegram_HEVC.mkv':
  Metadata:
    COMPATIBLE_BRANDS: isomiso2avc1mp41
    MAJOR_BRAND     : isom
    MINOR_VERSION   : 512
    ENCODER         : Lavf61.7.100
  Duration: 00:23:49.08, start: -0.021000, bitrate: 1368 kb/s
  Stream #0:0: Video: hevc (Main 10), yuv420p10le(tv, bt709, progressive), 1920x1080 [SAR 1:1 DAR 16:9], 23.98 fps, 23.98 tbr, 1k tbn (default)
      Metadata:
        HANDLER_NAME    : VideoHandler
        VENDOR_ID       : [0][0][0][0]
        ENCODER         : Lavc61.19.100 libx265
        BPS             : 1169736
        DURATION        : 00:23:48.969708333
        NUMBER_OF_FRAMES: 34261
        NUMBER_OF_BYTES : 208939682
        _STATISTICS_WRITING_APP: mkvpropedit v66.0.0 ('Josie') 64-bit
        _STATISTICS_WRITING_DATE_UTC: 2025-05-31 12:05:04
        _STATISTICS_TAGS: BPS DURATION NUMBER_OF_FRAMES NUMBER_OF_BYTES
  Stream #0:1: Audio: aac (LC), 48000 Hz, stereo, fltp (default)
      Metadata:
        HANDLER_NAME    : SoundHandler
        VENDOR_ID       : [0][0][0][0]
        ENCODER         : Lavc61.19.100 aac
        BPS             : 194670
        DURATION        : 00:23:49.077000000
        NUMBER_OF_FRAMES: 66989
        NUMBER_OF_BYTES : 34774981
        _STATISTICS_WRITING_APP: mkvpropedit v66.0.0 ('Josie') 64-bit
        _STATISTICS_WRITING_DATE_UTC: 2025-05-31 12:05:04
        _STATISTICS_TAGS: BPS DURATION NUMBER_OF_FRAMES NUMBER_OF_BYTES
Input #1, mov,mp4,m4a,3gp,3g2,mj2, from 'G:\Аниме\Онгоинги\!_36_Осень_2024\DreamCast\Нападение одиночки на иной мир\[DC] Hitoribocchi no Isekai Kouryaku - 12_Telegram.mp4':
  Metadata:
    major_brand     : isom
    minor_version   : 512
    compatible_brands: isomiso2avc1mp41
    encoder         : Lavf60.16.100
  Duration: 00:23:49.03, start: 0.000000, bitrate: 3705 kb/s
  Stream #1:0[0x1](und): Video: h264 (High) (avc1 / 0x31637661), yuv420p(tv, bt709, progressive), 1920x1080 [SAR 1:1 DAR 16:9], 3557 kb/s, 23.98 fps, 23.98 tbr, 24k tbn (default)
      Metadata:
        handler_name    : VideoHandler
        vendor_id       : [0][0][0][0]
        encoder         : Lavc60.31.102 h264_qsv
  Stream #1:1[0x2](und): Audio: aac (HE-AACv2) (mp4a / 0x6134706D), 48000 Hz, stereo, fltp, 144 kb/s (default)
      Metadata:
        handler_name    : SoundHandler
        vendor_id       : [0][0][0][0]
Stream mapping:
  Stream #0:0 (hevc) -> settb:default
  Stream #1:0 (h264) -> settb:default
  ssim:default -> Stream #0:0 (wrapped_avframe)
  Stream #0:1 -> #0:1 (aac (native) -> pcm_s16le (native))
Output #0, null, to 'pipe:':
  Metadata:
    COMPATIBLE_BRANDS: isomiso2avc1mp41
    MAJOR_BRAND     : isom
    MINOR_VERSION   : 512
    encoder         : Lavf61.7.100
  Stream #0:0: Video: wrapped_avframe, yuv420p10le(tv, bt709, progressive), 1920x1080 [SAR 1:1 DAR 16:9], q=2-31, 200 kb/s, 23.98 fps, 23.98 tbn
      Metadata:
        encoder         : Lavc61.19.100 wrapped_avframe
  Stream #0:1: Audio: pcm_s16le, 48000 Hz, stereo, s16, 1536 kb/s (default)
      Metadata:
        HANDLER_NAME    : SoundHandler
        VENDOR_ID       : [0][0][0][0]
        _STATISTICS_TAGS: BPS DURATION NUMBER_OF_FRAMES NUMBER_OF_BYTES
        BPS             : 194670
        DURATION        : 00:23:49.077000000
        NUMBER_OF_FRAMES: 66989
        NUMBER_OF_BYTES : 34774981
        _STATISTICS_WRITING_APP: mkvpropedit v66.0.0 ('Josie') 64-bit
        _STATISTICS_WRITING_DATE_UTC: 2025-05-31 12:05:04
        encoder         : Lavc61.19.100 pcm_s16le
frame=  179 fps=0.0 q=-0.0 size=N/A time=00:00:07.46 bitrate=N/A speed=14.4x    frame=  342 fps=334 q=-0.0 size=N/A time=00:00:14.26 bitrate=N/A speed=13.9x    frame=  600 fps=389 q=-0.0 size=N/A time=00:00:25.02 bitrate=N/A speed=16.2x    frame=  814 fps=396 q=-0.0 size=N/A time=00:00:33.95 bitrate=N/A speed=16.5x    frame= 1048 fps=405 q=-0.0 size=N/A time=00:00:43.71 bitrate=N/A speed=16.9x    frame= 1311 fps=421 q=-0.0 size=N/A time=00:00:54.67 bitrate=N/A speed=17.6x    frame= 1577 fps=436 q=-0.0 size=N/A time=00:01:05.77 bitrate=N/A speed=18.2x    frame= 1853 fps=447 q=-0.0 size=N/A time=00:01:17.28 bitrate=N/A speed=18.6x    frame= 2056 fps=441 q=-0.0 size=N/A time=00:01:25.75 bitrate=N/A speed=18.4x    frame= 2289 fps=443 q=-0.0 size=N/A time=00:01:35.47 bitrate=N/A speed=18.5x    frame= 2501 fps=440 q=-0.0 size=N/A time=00:01:44.31 bitrate=N/A speed=18.3x    frame= 2771 fps=447 q=-0.0 size=N/A time=00:01:55.57 bitrate=N/A speed=18.6x    frame= 2980 fps=443 q=-0.0 size=N/A time=00:02:04.29 bitrate=N/A speed=18.5x    frame= 3159 fps=437 q=-0.0 size=N/A time=00:02:11.75 bitrate=N/A speed=18.2x    frame= 3336 fps=431 q=-0.0 size=N/A time=00:02:19.13 bitrate=N/A speed=  18x    frame= 3500 fps=423 q=-0.0 size=N/A time=00:02:25.97 bitrate=N/A speed=17.6x    frame= 3674 fps=418 q=-0.0 size=N/A time=00:02:33.23 bitrate=N/A speed=17.4x    frame= 3845 fps=414 q=-0.0 size=N/A time=00:02:40.36 bitrate=N/A speed=17.3x    frame= 4003 fps=408 q=-0.0 size=N/A time=00:02:46.95 bitrate=N/A speed=  17x    frame= 4139 fps=401 q=-0.0 size=N/A time=00:02:52.63 bitrate=N/A speed=16.7x    frame= 4293 fps=396 q=-0.0 size=N/A time=00:02:59.05 bitrate=N/A speed=16.5x    frame= 4474 fps=394 q=-0.0 size=N/A time=00:03:06.60 bitrate=N/A speed=16.4x    frame= 4661 fps=392 q=-0.0 size=N/A time=00:03:14.40 bitrate=N/A speed=16.4x    frame= 4887 fps=395 q=-0.0 size=N/A time=00:03:23.82 bitrate=N/A speed=16.5x    frame= 5110 fps=396 q=-0.0 size=N/A time=00:03:33.12 bitrate=N/A speed=16.5x    frame= 5338 fps=398 q=-0.0 size=N/A time=00:03:42.63 bitrate=N/A speed=16.6x    frame= 5592 fps=401 q=-0.0 size=N/A time=00:03:53.23 bitrate=N/A speed=16.7x    frame= 5834 fps=404 q=-0.0 size=N/A time=00:04:03.32 bitrate=N/A speed=16.8x    frame= 6087 fps=407 q=-0.0 size=N/A time=00:04:13.87 bitrate=N/A speed=  17x    frame= 6295 fps=407 q=-0.0 size=N/A time=00:04:22.55 bitrate=N/A speed=  17x    frame= 6549 fps=409 q=-0.0 size=N/A time=00:04:33.14 bitrate=N/A speed=17.1x    frame= 6768 fps=410 q=-0.0 size=N/A time=00:04:42.28 bitrate=N/A speed=17.1x    frame= 7021 fps=412 q=-0.0 size=N/A time=00:04:52.83 bitrate=N/A speed=17.2x    frame= 7271 fps=414 q=-0.0 size=N/A time=00:05:03.26 bitrate=N/A speed=17.3x    frame= 7516 fps=416 q=-0.0 size=N/A time=00:05:13.47 bitrate=N/A speed=17.3x    frame= 7718 fps=415 q=-0.0 size=N/A time=00:05:21.90 bitrate=N/A speed=17.3x    frame= 7977 fps=417 q=-0.0 size=N/A time=00:05:32.70 bitrate=N/A speed=17.4x    frame= 8239 fps=420 q=-0.0 size=N/A time=00:05:43.63 bitrate=N/A speed=17.5x    frame= 8527 fps=423 q=-0.0 size=N/A time=00:05:55.64 bitrate=N/A speed=17.7x    frame= 8784 fps=425 q=-0.0 size=N/A time=00:06:06.36 bitrate=N/A speed=17.7x    frame= 9027 fps=426 q=-0.0 size=N/A time=00:06:16.50 bitrate=N/A speed=17.8x    frame= 9291 fps=428 q=-0.0 size=N/A time=00:06:27.51 bitrate=N/A speed=17.9x    frame= 9564 fps=431 q=-0.0 size=N/A time=00:06:38.89 bitrate=N/A speed=  18x    frame= 9810 fps=432 q=-0.0 size=N/A time=00:06:49.15 bitrate=N/A speed=  18x    frame=10063 fps=433 q=-0.0 size=N/A time=00:06:59.71 bitrate=N/A speed=18.1x    frame=10316 fps=434 q=-0.0 size=N/A time=00:07:10.26 bitrate=N/A speed=18.1x    frame=10574 fps=436 q=-0.0 size=N/A time=00:07:21.02 bitrate=N/A speed=18.2x    frame=10813 fps=436 q=-0.0 size=N/A time=00:07:30.99 bitrate=N/A speed=18.2x    frame=11071 fps=438 q=-0.0 size=N/A time=00:07:41.75 bitrate=N/A speed=18.2x    frame=11220 fps=435 q=-0.0 size=N/A time=00:07:47.96 bitrate=N/A speed=18.1x    frame=11416 fps=434 q=-0.0 size=N/A time=00:07:56.14 bitrate=N/A speed=18.1x    frame=11620 fps=433 q=-0.0 size=N/A time=00:08:04.65 bitrate=N/A speed=18.1x    frame=11811 fps=432 q=-0.0 size=N/A time=00:08:12.61 bitrate=N/A speed=  18x    frame=12036 fps=432 q=-0.0 size=N/A time=00:08:22.00 bitrate=N/A speed=  18x    frame=12261 fps=432 q=-0.0 size=N/A time=00:08:31.38 bitrate=N/A speed=  18x    frame=12524 fps=433 q=-0.0 size=N/A time=00:08:42.35 bitrate=N/A speed=18.1x    frame=12738 fps=433 q=-0.0 size=N/A time=00:08:51.28 bitrate=N/A speed=18.1x    frame=12971 fps=433 q=-0.0 size=N/A time=00:09:00.99 bitrate=N/A speed=18.1x    frame=13203 fps=433 q=-0.0 size=N/A time=00:09:10.67 bitrate=N/A speed=18.1x    frame=13445 fps=434 q=-0.0 size=N/A time=00:09:20.76 bitrate=N/A speed=18.1x    frame=13692 fps=435 q=-0.0 size=N/A time=00:09:31.07 bitrate=N/A speed=18.1x    frame=13924 fps=435 q=-0.0 size=N/A time=00:09:40.74 bitrate=N/A speed=18.1x    frame=14145 fps=435 q=-0.0 size=N/A time=00:09:49.96 bitrate=N/A speed=18.1x    frame=14370 fps=435 q=-0.0 size=N/A time=00:09:59.34 bitrate=N/A speed=18.1x    frame=14610 fps=435 q=-0.0 size=N/A time=00:10:09.35 bitrate=N/A speed=18.2x    frame=14855 fps=436 q=-0.0 size=N/A time=00:10:19.57 bitrate=N/A speed=18.2x    frame=15083 fps=436 q=-0.0 size=N/A time=00:10:29.08 bitrate=N/A speed=18.2x    frame=15282 fps=435 q=-0.0 size=N/A time=00:10:37.38 bitrate=N/A speed=18.2x    frame=15512 fps=435 q=-0.0 size=N/A time=00:10:46.97 bitrate=N/A speed=18.2x    frame=15762 fps=436 q=-0.0 size=N/A time=00:10:57.40 bitrate=N/A speed=18.2x    frame=16004 fps=436 q=-0.0 size=N/A time=00:11:07.50 bitrate=N/A speed=18.2x    frame=16231 fps=436 q=-0.0 size=N/A time=00:11:16.96 bitrate=N/A speed=18.2x    frame=16500 fps=438 q=-0.0 size=N/A time=00:11:28.18 bitrate=N/A speed=18.3x    frame=16740 fps=438 q=-0.0 size=N/A time=00:11:38.19 bitrate=N/A speed=18.3x    frame=16960 fps=438 q=-0.0 size=N/A time=00:11:47.37 bitrate=N/A speed=18.3x    frame=17194 fps=438 q=-0.0 size=N/A time=00:11:57.13 bitrate=N/A speed=18.3x    frame=17456 fps=439 q=-0.0 size=N/A time=00:12:08.06 bitrate=N/A speed=18.3x    frame=17709 fps=440 q=-0.0 size=N/A time=00:12:18.61 bitrate=N/A speed=18.3x    frame=17978 fps=441 q=-0.0 size=N/A time=00:12:29.83 bitrate=N/A speed=18.4x    frame=18241 fps=442 q=-0.0 size=N/A time=00:12:40.80 bitrate=N/A speed=18.4x    frame=18483 fps=442 q=-0.0 size=N/A time=00:12:50.89 bitrate=N/A speed=18.4x    frame=18707 fps=442 q=-0.0 size=N/A time=00:13:00.23 bitrate=N/A speed=18.4x    frame=18955 fps=442 q=-0.0 size=N/A time=00:13:10.58 bitrate=N/A speed=18.4x    frame=19170 fps=442 q=-0.0 size=N/A time=00:13:19.54 bitrate=N/A speed=18.4x    frame=19367 fps=441 q=-0.0 size=N/A time=00:13:27.76 bitrate=N/A speed=18.4x    frame=19615 fps=441 q=-0.0 size=N/A time=00:13:38.10 bitrate=N/A speed=18.4x    frame=19780 fps=440 q=-0.0 size=N/A time=00:13:44.99 bitrate=N/A speed=18.4x    frame=19988 fps=440 q=-0.0 size=N/A time=00:13:53.66 bitrate=N/A speed=18.3x    frame=20201 fps=439 q=-0.0 size=N/A time=00:14:02.55 bitrate=N/A speed=18.3x    frame=20398 fps=439 q=-0.0 size=N/A time=00:14:10.76 bitrate=N/A speed=18.3x    frame=20559 fps=437 q=-0.0 size=N/A time=00:14:17.48 bitrate=N/A speed=18.2x    frame=20788 fps=437 q=-0.0 size=N/A time=00:14:27.03 bitrate=N/A speed=18.2x    frame=21034 fps=438 q=-0.0 size=N/A time=00:14:37.29 bitrate=N/A speed=18.3x    frame=21240 fps=437 q=-0.0 size=N/A time=00:14:45.88 bitrate=N/A speed=18.2x    frame=21419 fps=436 q=-0.0 size=N/A time=00:14:53.35 bitrate=N/A speed=18.2x    frame=21635 fps=436 q=-0.0 size=N/A time=00:15:02.35 bitrate=N/A speed=18.2x    frame=21858 fps=436 q=-0.0 size=N/A time=00:15:11.66 bitrate=N/A speed=18.2x    frame=22109 fps=437 q=-0.0 size=N/A time=00:15:22.12 bitrate=N/A speed=18.2x    frame=22331 fps=437 q=-0.0 size=N/A time=00:15:31.38 bitrate=N/A speed=18.2x    frame=22569 fps=437 q=-0.0 size=N/A time=00:15:41.31 bitrate=N/A speed=18.2x    frame=22825 fps=437 q=-0.0 size=N/A time=00:15:51.99 bitrate=N/A speed=18.2x    frame=23071 fps=438 q=-0.0 size=N/A time=00:16:02.25 bitrate=N/A speed=18.3x    frame=23322 fps=438 q=-0.0 size=N/A time=00:16:12.72 bitrate=N/A speed=18.3x    frame=23562 fps=438 q=-0.0 size=N/A time=00:16:22.73 bitrate=N/A speed=18.3x    frame=23826 fps=439 q=-0.0 size=N/A time=00:16:33.74 bitrate=N/A speed=18.3x    frame=24081 fps=440 q=-0.0 size=N/A time=00:16:44.42 bitrate=N/A speed=18.3x    frame=24317 fps=440 q=-0.0 size=N/A time=00:16:54.22 bitrate=N/A speed=18.3x    frame=24596 fps=441 q=-0.0 size=N/A time=00:17:05.85 bitrate=N/A speed=18.4x    frame=24853 fps=441 q=-0.0 size=N/A time=00:17:16.57 bitrate=N/A speed=18.4x    frame=25084 fps=441 q=-0.0 size=N/A time=00:17:26.21 bitrate=N/A speed=18.4x    frame=25328 fps=442 q=-0.0 size=N/A time=00:17:36.38 bitrate=N/A speed=18.4x    frame=25593 fps=442 q=-0.0 size=N/A time=00:17:47.44 bitrate=N/A speed=18.4x    frame=25839 fps=443 q=-0.0 size=N/A time=00:17:57.70 bitrate=N/A speed=18.5x    frame=26079 fps=443 q=-0.0 size=N/A time=00:18:07.71 bitrate=N/A speed=18.5x    frame=26330 fps=443 q=-0.0 size=N/A time=00:18:18.18 bitrate=N/A speed=18.5x    frame=26593 fps=444 q=-0.0 size=N/A time=00:18:29.14 bitrate=N/A speed=18.5x    frame=26808 fps=443 q=-0.0 size=N/A time=00:18:38.11 bitrate=N/A speed=18.5x    frame=27057 fps=444 q=-0.0 size=N/A time=00:18:48.50 bitrate=N/A speed=18.5x    frame=27250 fps=443 q=-0.0 size=N/A time=00:18:56.55 bitrate=N/A speed=18.5x    frame=27433 fps=442 q=-0.0 size=N/A time=00:19:04.18 bitrate=N/A speed=18.5x    frame=27636 fps=442 q=-0.0 size=N/A time=00:19:12.65 bitrate=N/A speed=18.4x    frame=27784 fps=441 q=-0.0 size=N/A time=00:19:18.82 bitrate=N/A speed=18.4x    frame=27992 fps=441 q=-0.0 size=N/A time=00:19:27.49 bitrate=N/A speed=18.4x    frame=28201 fps=440 q=-0.0 size=N/A time=00:19:36.21 bitrate=N/A speed=18.4x    frame=28446 fps=441 q=-0.0 size=N/A time=00:19:46.43 bitrate=N/A speed=18.4x    frame=28645 fps=440 q=-0.0 size=N/A time=00:19:54.73 bitrate=N/A speed=18.4x    frame=28837 fps=439 q=-0.0 size=N/A time=00:20:02.74 bitrate=N/A speed=18.3x    frame=29076 fps=440 q=-0.0 size=N/A time=00:20:12.71 bitrate=N/A speed=18.3x    frame=29319 fps=440 q=-0.0 size=N/A time=00:20:22.84 bitrate=N/A speed=18.4x    frame=29542 fps=440 q=-0.0 size=N/A time=00:20:32.14 bitrate=N/A speed=18.3x    frame=29799 fps=440 q=-0.0 size=N/A time=00:20:42.86 bitrate=N/A speed=18.4x    frame=30070 fps=441 q=-0.0 size=N/A time=00:20:54.16 bitrate=N/A speed=18.4x    frame=30308 fps=441 q=-0.0 size=N/A time=00:21:04.09 bitrate=N/A speed=18.4x    frame=30539 fps=441 q=-0.0 size=N/A time=00:21:13.73 bitrate=N/A speed=18.4x    frame=30792 fps=442 q=-0.0 size=N/A time=00:21:24.28 bitrate=N/A speed=18.4x    frame=31055 fps=442 q=-0.0 size=N/A time=00:21:35.25 bitrate=N/A speed=18.4x    frame=31271 fps=442 q=-0.0 size=N/A time=00:21:44.26 bitrate=N/A speed=18.4x    frame=31499 fps=442 q=-0.0 size=N/A time=00:21:53.77 bitrate=N/A speed=18.4x    frame=31735 fps=442 q=-0.0 size=N/A time=00:22:03.61 bitrate=N/A speed=18.4x    frame=31966 fps=442 q=-0.0 size=N/A time=00:22:13.24 bitrate=N/A speed=18.4x    frame=32166 fps=442 q=-0.0 size=N/A time=00:22:21.59 bitrate=N/A speed=18.4x    frame=32385 fps=442 q=-0.0 size=N/A time=00:22:30.72 bitrate=N/A speed=18.4x    frame=32601 fps=441 q=-0.0 size=N/A time=00:22:39.73 bitrate=N/A speed=18.4x    frame=32814 fps=441 q=-0.0 size=N/A time=00:22:48.61 bitrate=N/A speed=18.4x    frame=33008 fps=441 q=-0.0 size=N/A time=00:22:56.70 bitrate=N/A speed=18.4x    frame=33190 fps=440 q=-0.0 size=N/A time=00:23:04.29 bitrate=N/A speed=18.4x    frame=33346 fps=439 q=-0.0 size=N/A time=00:23:10.80 bitrate=N/A speed=18.3x    frame=33566 fps=439 q=-0.0 size=N/A time=00:23:19.98 bitrate=N/A speed=18.3x    frame=33823 fps=440 q=-0.0 size=N/A time=00:23:30.70 bitrate=N/A speed=18.3x    frame=34051 fps=440 q=-0.0 size=N/A time=00:23:40.21 bitrate=N/A speed=18.3x    [Parsed_ssim_10 @ 0000019c05dfa800] SSIM Y:0.993457 (21.842329) U:0.993373 (21.786577) V:0.992918 (21.498218) All:0.993353 (21.773835)
[out#0/null @ 0000019c05d64bc0] video:14722KiB audio:267956KiB subtitle:0KiB other streams:0KiB global headers:0KiB muxing overhead: unknown
frame=34261 fps=440 q=-0.0 Lsize=N/A time=00:23:48.96 bitrate=N/A speed=18.3x    
